<?xml version="1.0" encoding="iso-8859-1"?>
<!-- Generator: Adobe Illustrator 19.0.0, SVG Export Plug-In . SVG Version: 6.00 Build 0)  -->
<svg version="1.1" id="Layer_1" xmlns="http://www.w3.org/2000/svg" xmlns:xlink="http://www.w3.org/1999/xlink" x="0px" y="0px"
	 viewBox="0 0 512 512" style="enable-background:new 0 0 512 512;" xml:space="preserve">
<path style="fill:#4D4D4D;" d="M421.978,118.159H256v163.154h199.736V151.917C455.736,133.35,440.545,118.159,421.978,118.159z"/>
<path style="fill:#737373;" d="M90.022,118.159c-18.567,0-33.758,15.191-33.758,33.758v129.395H256V118.159H90.022z"/>
<polygon style="fill:#DCDCDC;" points="399.473,0.016 399.473,281.313 286.945,281.313 365.714,0.016 "/>
<rect x="112.527" y="0.006" style="fill:#EEEEEE;" width="253.187" height="281.296"/>
<path style="fill:#02ACAB;" d="M466.989,236.302h-33.758v135.033L512,326.323v-45.011C512,256.556,491.745,236.302,466.989,236.302z
	"/>
<path style="fill:#42C8C6;" d="M478.242,281.313v123.78L0,326.323v-45.011c0-24.756,20.255-45.011,45.011-45.011h388.22
	C457.987,236.302,478.242,256.556,478.242,281.313z"/>
<polygon style="fill:#B9B9B9;" points="512,326.323 512,511.994 478.242,511.994 455.736,419.159 478.242,326.323 "/>
<polygon style="fill:#DCDCDC;" points="478.242,326.323 478.242,511.994 433.231,511.994 256,427.598 78.769,511.994 0,511.994 
	0,326.323 "/>
<polygon style="fill:#4D4D4D;" points="433.231,393.84 433.231,427.598 365.714,467.782 399.473,393.84 "/>
<g>
	<polygon style="fill:#737373;" points="399.473,393.84 399.473,427.598 239.121,461.356 78.769,427.598 78.769,393.84 	"/>
	<polygon style="fill:#737373;" points="433.231,427.598 433.231,511.994 399.473,511.994 365.714,469.796 399.473,427.598 	"/>
</g>
<rect x="78.769" y="427.598" style="fill:#969696;" width="320.703" height="84.396"/>
<g>
	<path style="fill:#4D4D4D;" d="M326.33,81.587H185.67c-4.661,0-8.44-3.778-8.44-8.44c0-4.662,3.779-8.44,8.44-8.44H326.33
		c4.662,0,8.44,3.778,8.44,8.44C334.769,77.81,330.992,81.587,326.33,81.587z"/>
	<path style="fill:#4D4D4D;" d="M326.33,126.598H185.67c-4.661,0-8.44-3.778-8.44-8.44s3.779-8.44,8.44-8.44H326.33
		c4.662,0,8.44,3.778,8.44,8.44S330.992,126.598,326.33,126.598z"/>
	<path style="fill:#4D4D4D;" d="M272.506,171.609H185.67c-4.661,0-8.44-3.778-8.44-8.44s3.779-8.44,8.44-8.44h86.835
		c4.662,0,8.44,3.778,8.44,8.44S277.168,171.609,272.506,171.609z"/>
</g>
<path style="fill:#FFFFFF;" d="M444.484,289.752h-11.253c-4.662,0-8.44-3.778-8.44-8.44s3.778-8.44,8.44-8.44h11.253
	c4.662,0,8.44,3.778,8.44,8.44S449.146,289.752,444.484,289.752z"/>
<g>
</g>
<g>
</g>
<g>
</g>
<g>
</g>
<g>
</g>
<g>
</g>
<g>
</g>
<g>
</g>
<g>
</g>
<g>
</g>
<g>
</g>
<g>
</g>
<g>
</g>
<g>
</g>
<g>
</g>
</svg>
