<svg id="Layer_1" data-name="Layer 1" xmlns="http://www.w3.org/2000/svg" width="307.02" height="60.28" viewBox="0 0 307.02 60.28">
  <title>siska-logo</title>
  <g>
    <path d="M16,19.37V52.8c0,3.5-.92,6.22-2.78,8.16s-4.53,2.92-8,2.92A17.4,17.4,0,0,1,1,63.38V56.67a15.89,15.89,0,0,0,2.67.26q3.84,0,3.84-4.07V19.37Zm-9.15-8.2A4.15,4.15,0,0,1,8.13,8,4.78,4.78,0,0,1,11.6,6.81,4.8,4.8,0,0,1,15.05,8a4.15,4.15,0,0,1,1.28,3.13A4.16,4.16,0,0,1,15,14.34a4.79,4.79,0,0,1-3.44,1.26,4.79,4.79,0,0,1-3.44-1.23A4.19,4.19,0,0,1,6.85,11.17Z" transform="translate(-0.03 -4.6)" style="fill: none;stroke: green;stroke-miterlimit: 10;stroke-width: 2px"/>
    <path d="M41,51.07a9.41,9.41,0,0,1-.85-2.84,10.21,10.21,0,0,1-8,3.43A11.23,11.23,0,0,1,24.42,49a8.65,8.65,0,0,1-3.06-6.79,9,9,0,0,1,3.73-7.74q3.73-2.68,10.8-2.72h3.89V29.89a5.24,5.24,0,0,0-1.12-3.51,4.47,4.47,0,0,0-3.56-1.32,5.08,5.08,0,0,0-3.36,1,3.48,3.48,0,0,0-1.21,2.82H22.07a8.52,8.52,0,0,1,1.7-5.1,11.25,11.25,0,0,1,4.8-3.68,17.51,17.51,0,0,1,7-1.33q5.85,0,9.3,2.94A10.33,10.33,0,0,1,48.31,30V43.75a15.2,15.2,0,0,0,1.24,6.85v.49Zm-7-5.89a7.33,7.33,0,0,0,3.46-.83,5.44,5.44,0,0,0,2.34-2.24V36.66H36.63c-4.24,0-6.49,1.46-6.77,4.39v.5A3.37,3.37,0,0,0,31,44.16,4.34,4.34,0,0,0,34,45.18Z" transform="translate(-0.03 -4.6)" style="fill: none;stroke: green;stroke-miterlimit: 10;stroke-width: 2px"/>
    <path d="M62.59,19.37,62.85,23A11,11,0,0,1,72,18.79q5,0,7.5,3c1.64,2,2.48,4.92,2.52,8.85V51.07H73.51V30.75a5.49,5.49,0,0,0-1.17-3.92,5.25,5.25,0,0,0-3.89-1.23,5.84,5.84,0,0,0-5.37,3.06v22.4H54.62V19.37Z" transform="translate(-0.03 -4.6)" style="fill: none;stroke: green;stroke-miterlimit: 10;stroke-width: 2px"/>
    <path d="M120.51,42.31A2.73,2.73,0,0,0,119,39.87a17.22,17.22,0,0,0-4.94-1.6q-11.31-2.37-11.31-9.61a8.69,8.69,0,0,1,3.5-7,14.16,14.16,0,0,1,9.16-2.83q6,0,9.65,2.84a9,9,0,0,1,3.62,7.38h-8.47a4.09,4.09,0,0,0-1.17-3,5,5,0,0,0-3.66-1.19,5.09,5.09,0,0,0-3.31,1,3.06,3.06,0,0,0-1.19,2.39,2.61,2.61,0,0,0,1.33,2.27,13.5,13.5,0,0,0,4.5,1.5A36.41,36.41,0,0,1,122,33.44q6.7,2.46,6.71,8.52A8.28,8.28,0,0,1,125,49a16.06,16.06,0,0,1-9.61,2.68,16.73,16.73,0,0,1-7.08-1.42,12.06,12.06,0,0,1-4.85-3.9A9,9,0,0,1,101.71,41h8a4.43,4.43,0,0,0,1.67,3.45,6.63,6.63,0,0,0,4.16,1.2,6.12,6.12,0,0,0,3.68-.92A2.86,2.86,0,0,0,120.51,42.31Zm-4.93-32.08L119.85,6h7.24v.33l-8.84,8.23h-5.4L104,6.31V6h7.24Z" transform="translate(-0.03 -4.6)" style="fill: none;stroke: green;stroke-miterlimit: 10;stroke-width: 2px"/>
    <path d="M134.13,11.17A4.14,4.14,0,0,1,135.4,8a5.5,5.5,0,0,1,6.93,0,4.11,4.11,0,0,1,1.29,3.13,4.17,4.17,0,0,1-1.3,3.17,5.44,5.44,0,0,1-6.89,0A4.17,4.17,0,0,1,134.13,11.17Zm9,39.9h-8.49V19.37h8.49Z" transform="translate(-0.03 -4.6)" style="fill: none;stroke: green;stroke-miterlimit: 10;stroke-width: 2px"/>
    <path d="M167.26,42.31a2.72,2.72,0,0,0-1.53-2.44,17.22,17.22,0,0,0-4.94-1.6q-11.31-2.37-11.31-9.61a8.69,8.69,0,0,1,3.5-7,14.1,14.1,0,0,1,9.16-2.83q6,0,9.65,2.84a9,9,0,0,1,3.62,7.38h-8.47a4.09,4.09,0,0,0-1.17-3,5,5,0,0,0-3.66-1.19,5.09,5.09,0,0,0-3.31,1,3.06,3.06,0,0,0-1.17,2.46A2.61,2.61,0,0,0,159,30.59a13.5,13.5,0,0,0,4.5,1.5,36.41,36.41,0,0,1,5.33,1.42Q175.5,36,175.5,42a8.28,8.28,0,0,1-3.72,7,16.06,16.06,0,0,1-9.61,2.68,16.73,16.73,0,0,1-7.08-1.42,11.92,11.92,0,0,1-4.85-3.9,9.09,9.09,0,0,1-1.76-5.34h8a4.43,4.43,0,0,0,1.67,3.45,6.63,6.63,0,0,0,4.16,1.2,6.12,6.12,0,0,0,3.68-.92A2.87,2.87,0,0,0,167.26,42.31Zm-4.92-32.08L166.62,6h7.23v.33L165,14.6h-5.36l-8.8-8.29V6h7.24Z" transform="translate(-0.03 -4.6)" style="fill: none;stroke: green;stroke-miterlimit: 10;stroke-width: 2px"/>
    <path d="M192.46,38.36l-3.05,3v9.66H181v-45h8.46V31l1.64-2.11,8.12-9.53h10.16L197.85,32.6,210.3,51.08h-9.73Z" transform="translate(-0.03 -4.6)" style="fill: none;stroke: green;stroke-miterlimit: 10;stroke-width: 2px"/>
    <path d="M231.37,51.07a9.33,9.33,0,0,1-.85-2.84,10.24,10.24,0,0,1-8,3.43A11.23,11.23,0,0,1,214.8,49a8.65,8.65,0,0,1-3.06-6.79,9,9,0,0,1,3.73-7.74q3.74-2.68,10.8-2.72h3.89V29.89A5.24,5.24,0,0,0,229,26.38a4.47,4.47,0,0,0-3.56-1.32,5.08,5.08,0,0,0-3.36,1,3.48,3.48,0,0,0-1.21,2.82h-8.47a8.52,8.52,0,0,1,1.7-5.1,11.25,11.25,0,0,1,4.8-3.68,17.51,17.51,0,0,1,7-1.33q5.85,0,9.3,2.94A10.33,10.33,0,0,1,238.68,30V43.75a15.2,15.2,0,0,0,1.24,6.85v.49Zm-7-5.89a7.21,7.21,0,0,0,3.46-.83,5.39,5.39,0,0,0,2.34-2.24V36.66H227c-4.24,0-6.49,1.46-6.77,4.39v.5a3.37,3.37,0,0,0,1.12,2.61,4.32,4.32,0,0,0,3,1Z" transform="translate(-0.03 -4.6)" style="fill: none;stroke: green;stroke-miterlimit: 10;stroke-width: 2px"/>
  </g>
  <g style="isolation: isolate">
    <path d="M263.72,45.09a5.52,5.52,0,0,0,3.8-1.29,4.51,4.51,0,0,0,1.53-3.43H277a10.91,10.91,0,0,1-1.76,5.91,11.67,11.67,0,0,1-4.73,4.16,14.91,14.91,0,0,1-6.64,1.48q-6.8,0-10.72-4.33t-3.93-11.93V35.1q0-7.32,3.9-11.69T263.8,19a13.32,13.32,0,0,1,9.54,3.39,12,12,0,0,1,3.65,9h-7.94a5.81,5.81,0,0,0-1.53-4,5.65,5.65,0,0,0-8.33.61q-1.51,2.16-1.51,7v.88q0,4.89,1.49,7A5.17,5.17,0,0,0,263.72,45.09Z" transform="translate(-0.03 -4.6)" style="fill: #92e571"/>
    <path d="M291.55,44.5h15.5v6.83H280.74V46.17l14.91-19.71H281.18V19.63h25.4v5Z" transform="translate(-0.03 -4.6)" style="fill: #92e571"/>
  </g>
  <rect x="249.07" width="1.5" height="47" style="fill: green"/>
</svg>
